<svg width="129" height="46" viewBox="0 0 129 46" fill="none" xmlns="http://www.w3.org/2000/svg">
<g filter="url(#filter0_d_2_3590)">
<rect x="4.5" y="0.978638" width="120" height="37" rx="3" fill="#BEBEC0"/>
<path fill-rule="evenodd" clip-rule="evenodd" d="M10.5 11.7714V16.5492H11.0335H11.567L11.5984 12.8188L11.6298 9.08828L13.2948 11.5188C14.2106 12.8558 14.9947 13.9513 15.0371 13.9534C15.0797 13.9556 15.8557 12.8768 16.7616 11.5562L18.4088 9.15496L18.4402 12.8521L18.4716 16.5492H19.0645H19.6575V11.7779V7.00656H19.0808H18.5041L16.8008 9.54291C15.8189 11.0054 15.0533 12.0354 14.9929 11.9756C14.9352 11.9184 14.155 10.7904 13.259 9.46869L11.6298 7.06546L11.0649 7.02953L10.5 6.9936V11.7714ZM24.2441 11.6306C23.0799 14.1739 22.1 16.324 22.0664 16.4087C22.02 16.5259 22.1522 16.554 22.6215 16.5265L23.2374 16.4903L23.7823 15.2828L24.3273 14.0752L26.8981 14.0758L29.4691 14.0763L30.0043 15.2834L30.5395 16.4903L31.1792 16.5265C31.6773 16.5547 31.8053 16.5274 31.7573 16.4037C31.7234 16.3163 30.7455 14.1663 29.5841 11.6257L27.4724 7.00656H26.9167H26.3608L24.2441 11.6306ZM34.1668 11.7639V16.5492H36.2231C38.9814 16.5492 40.0312 16.2641 41.1606 15.2086C43.2677 13.2388 43.0188 9.54809 40.6734 7.98639C39.5112 7.21249 38.9839 7.09339 36.4562 7.03318L34.1668 6.97864V11.7639ZM45.4255 7.08514C45.3818 7.12826 45.3461 9.27536 45.3461 11.8565V16.5492H48.8545H52.3629V16.0191V15.4889H49.4492H46.5354V13.9009V12.3126L49.1221 12.281L51.7088 12.2491L51.7453 11.7484L51.782 11.2478H49.1586H46.5354V9.6573V8.06686H49.4492H52.3629V7.53671V7.00656H48.9339C47.0478 7.00656 45.469 7.0419 45.4255 7.08514ZM59.8554 11.7779V16.5492H60.3906H60.9258V11.7779V7.00656H60.3906H59.8554V11.7779ZM64.2558 11.7844V16.5622L64.8207 16.5263L65.3856 16.4903L65.417 12.7427L65.4484 8.99509L68.4331 12.7427C71.3647 16.4237 71.426 16.4909 71.8803 16.5265L72.343 16.5628V11.7846V7.00656H71.8078H71.2726V10.7445V14.4824L70.9328 14.0726C70.746 13.8472 69.4047 12.1651 67.9522 10.3347L65.3114 7.00656H64.7836H64.2558V11.7844ZM39.2617 8.48026C41.5248 9.48624 42.1346 12.4254 40.4573 14.2432C39.5749 15.1998 38.9941 15.4046 36.9914 15.4657L35.3561 15.5157V11.7746V8.0334L36.9412 8.09336C38.3429 8.14638 38.6114 8.19115 39.2617 8.48026ZM27.8968 10.5824C28.3984 11.7066 28.8429 12.7139 28.8841 12.8208C28.9523 12.9965 28.7625 13.0149 26.8778 13.0149H24.7961L25.8162 10.7765C26.3773 9.54538 26.8697 8.5381 26.9105 8.5381C26.9513 8.5381 27.395 9.45797 27.8968 10.5824ZM57.4467 21.6252C56.3044 21.8918 54.9041 22.9233 54.3015 23.942C53.3123 25.6141 53.3123 27.8657 54.3015 29.5378C54.6753 30.1696 55.6188 31.0554 56.267 31.383C58.2605 32.3904 60.7645 32.0987 62.4053 30.6682L62.964 30.181L62.3954 29.609C62.0826 29.2945 61.7789 29.0372 61.7205 29.0372C61.6621 29.0372 61.446 29.178 61.2403 29.35C59.8019 30.5532 57.5291 30.4982 56.4498 29.2342C55.2523 27.8319 55.2347 25.6126 56.4106 24.2893C57.5497 23.0073 59.4504 22.8512 60.9473 23.9165C61.2631 24.1412 61.5669 24.3383 61.6225 24.3543C61.678 24.3705 61.9796 24.1027 62.2925 23.7591L62.8616 23.1346L62.5392 22.8012C62.1201 22.368 61.1798 21.8651 60.4085 21.6616C59.7308 21.4829 58.1399 21.4634 57.4467 21.6252ZM10.5793 21.6937C10.5357 21.7368 10.5 24.0155 10.5 26.7573V31.7424L10.7739 31.8105C10.9246 31.8479 11.3394 31.8622 11.6956 31.8422L12.3434 31.8058L12.376 29.7735L12.4084 27.7413H14.9627H17.5168V26.8577V25.9741H14.9598H12.4029V24.6803V23.3865L15.2869 23.3549L18.1709 23.3234L18.2059 22.4692L18.2408 21.6151H14.4496C12.3646 21.6151 10.6229 21.6505 10.5793 21.6937ZM20.2806 26.7104L20.3116 31.8058H21.1441H21.9766L22.0096 30.068L22.0424 28.3303H23.1503H24.2583L25.4994 30.068L26.7406 31.8058L27.7777 31.8398C28.515 31.864 28.815 31.8336 28.815 31.7348C28.815 31.6584 28.2318 30.7872 27.5189 29.7988L26.2229 28.0019L26.7151 27.7832C27.8908 27.261 28.574 26.2262 28.576 24.9642C28.5788 23.2358 27.6384 22.1197 25.8657 21.7474C25.514 21.6737 24.1334 21.6151 22.7425 21.6151H20.2497L20.2806 26.7104ZM34.1648 22.1747C31.5004 28.1132 29.9914 31.6633 30.0897 31.7607C30.1538 31.8242 30.5751 31.8604 31.0258 31.841L31.8452 31.8058L32.3689 30.5958L32.8924 29.3858L35.2785 29.4177L37.6645 29.4495L38.1381 30.5687C38.3987 31.1843 38.6686 31.7269 38.7381 31.7745C38.9266 31.9035 40.4448 31.8827 40.5276 31.7498C40.5833 31.6606 37.236 23.8871 36.3285 21.998C36.1459 21.6178 36.1383 21.6151 35.2802 21.6151H34.4159L34.1648 22.1747ZM42.4273 21.7624C42.396 21.8434 42.3842 24.1363 42.4013 26.8577L42.4324 31.8058H43.3243H44.2163L44.2758 28.3358L44.3352 24.8659L46.8226 28.0412C50.0184 32.1209 49.7714 31.8651 50.512 31.8629C50.8433 31.8618 51.1816 31.8186 51.2641 31.7668C51.3818 31.6928 51.4075 30.5944 51.3831 26.6732L51.352 21.674L50.4321 21.6396L49.5122 21.6052L49.4807 25.0244L49.4492 28.4435L46.7816 25.0293L44.114 21.6151H43.2993C42.7569 21.6151 42.4653 21.6644 42.4273 21.7624ZM64.8789 26.7104L64.9099 31.8058L68.4778 31.8387C70.4401 31.8569 72.1685 31.842 72.3186 31.8058C72.5742 31.7439 72.5893 31.6894 72.5564 30.9481L72.5214 30.1564L69.6373 30.1248L66.7533 30.0933V28.8018V27.5104L69.2806 27.4786L71.8078 27.4468V26.681V25.9152L69.2806 25.8834L66.7533 25.8516V24.558V23.2645H69.6076H72.4619V22.4398V21.6151H68.6549H64.848L64.8789 26.7104ZM25.8082 23.579C26.9817 24.1307 26.9569 25.8167 25.7667 26.392C25.3867 26.5757 25.0275 26.615 23.7011 26.6182L22.0956 26.6221L22.0625 25.0022L22.0294 23.3823H23.7095C25.0326 23.3823 25.4786 23.4241 25.8082 23.579ZM36.1221 25.8402C36.5512 26.8324 36.9022 27.6661 36.9022 27.6927C36.9022 27.7195 36.1797 27.7413 35.2967 27.7413C34.2448 27.7413 33.6911 27.6982 33.6911 27.6164C33.6911 27.4975 34.9005 24.6221 35.1417 24.1674C35.2048 24.0485 35.2757 23.9703 35.2993 23.9936C35.3228 24.0169 35.6932 24.8478 36.1221 25.8402Z" fill="black"/>
<path d="M80.5 31.9786V19.4786V6.97864H100.5H120.5V19.4786V31.9786H100.5H80.5Z" fill="white"/>
<path d="M107.308 31.9785V19.4785V6.97852H114.027H120.747V19.4785V31.9785H114.027H107.308Z" fill="#BF0219"/>
<path d="M80.3112 31.9785V19.4785V6.97852H87.0908H93.8702L93.84 19.4476L93.8096 31.9167L87.0604 31.9475L80.3112 31.9785Z" fill="#163463"/>
</g>
<defs>
<filter id="filter0_d_2_3590" x="0.5" y="0.978638" width="128" height="45" filterUnits="userSpaceOnUse" color-interpolation-filters="sRGB">
<feFlood flood-opacity="0" result="BackgroundImageFix"/>
<feColorMatrix in="SourceAlpha" type="matrix" values="0 0 0 0 0 0 0 0 0 0 0 0 0 0 0 0 0 0 127 0" result="hardAlpha"/>
<feOffset dy="4"/>
<feGaussianBlur stdDeviation="2"/>
<feComposite in2="hardAlpha" operator="out"/>
<feColorMatrix type="matrix" values="0 0 0 0 0 0 0 0 0 0 0 0 0 0 0 0 0 0 0.25 0"/>
<feBlend mode="normal" in2="BackgroundImageFix" result="effect1_dropShadow_2_3590"/>
<feBlend mode="normal" in="SourceGraphic" in2="effect1_dropShadow_2_3590" result="shape"/>
</filter>
</defs>
</svg>
